# xmcd CD database file
#
# Track frame offsets:
#	150
#	11635
#	32947
#	44477
#	78537
#	100625
#	112807
#	126335
#	137417
#	161035
#	173870
#	202317
#	214755
#	233920
#	249830
#	268095
#	277975
#	289937
#
# Disc length: 4253 seconds
#
# Revision: 0
# Processed by: cddbd v1.4PL0 Copyright (c) Steve Scherf et al.
# Submitted via: CDex 1.50
#
DISCID=06109b12
DTITLE=Various Artist - Nothin' But The Blues - CD2
DYEAR=1900
DGENRE=Blues
TTITLE0=Jimmy Reed - I'm Nervous
TTITLE1=Memphis Slim - Forty Years Or More
TTITLE2=Lightnin' Hopkins - Easy On Your Heels
TTITLE3=Howlin' Wolf - Forty Four
TTITLE4=Muddy Waters - Soon Forgotten
TTITLE5=Lightning Slim - Rooster Blues
TTITLE6=John Lee Hooker - I'm Going Upstairs
TTITLE7=Memphis Slim - Strange Strange Feeling
TTITLE8=Muddy Waters - Screamin' And Cryin'
TTITLE9=Jimmy Reed - Caress Me Babe
TTITLE10=Howlin' Wolf - Going Down Slow
TTITLE11=Lightnin' Hopkins - Evil Hearted Woman
TTITLE12=Memphis Slim - Gone Again
TTITLE13=John Lee HookerThelma
TTITLE14=Lightning Slim - Hoodoo Blues
TTITLE15=John Lee Hooker - Dusty Road
TTITLE16=Lightnin' Hopkins - Don't Think 'Cause You're Pretty
TTITLE17=Muddy Waters - Howlin' Wolf
EXTD=
EXTT0=
EXTT1=
EXTT2=
EXTT3=
EXTT4=
EXTT5=
EXTT6=
EXTT7=
EXTT8=
EXTT9=
EXTT10=
EXTT11=
EXTT12=
EXTT13=
EXTT14=
EXTT15=
EXTT16=
EXTT17=
PLAYORDER=
